<svg xmlns="http://www.w3.org/2000/svg" viewBox="0 0 438.32 438.32">
  Doc Icon
  <path d="M376.59,422.13H63.32V20H376.59ZM359.42,37.51H80.78v367H359.42Z"/><path d="M211.4,118V81.14h16.82v37.13l32.84-18.78,8.62,15-31.79,18.65,31.77,18.95L261,167l-32-18.38v36.55H211.48V148.57L179.06,167c-2.9-5-5.5-9.44-8.62-14.79l31.8-18.92-31.77-18.9c3-5.16,5.67-9.83,8.6-14.91Z"/><path d="M124.38,246.62v-16.5h191v16.5Z"/><path d="M315.68,282.87v16.49h-191V282.87Z"/><path d="M124.32,351.7V335.43H228.26V351.7Z"/>
</svg>